<mxfile host="65bd71144e">
    <diagram id="Vnn1weSjqi0h357gHObl" name="第 1 页">
        <mxGraphModel dx="684" dy="576" grid="0" gridSize="10" guides="1" tooltips="1" connect="1" arrows="1" fold="1" page="0" pageScale="1" pageWidth="827" pageHeight="1169" math="0" shadow="0">
            <root>
                <mxCell id="0"/>
                <mxCell id="1" parent="0"/>
                <mxCell id="5" style="edgeStyle=none;html=1;fontSize=20;fontColor=#FF8000;" edge="1" parent="1" source="2" target="3">
                    <mxGeometry relative="1" as="geometry"/>
                </mxCell>
                <mxCell id="6" style="edgeStyle=none;html=1;entryX=0.014;entryY=0.139;entryDx=0;entryDy=0;entryPerimeter=0;fontSize=20;fontColor=#FF8000;exitX=0.992;exitY=1.028;exitDx=0;exitDy=0;exitPerimeter=0;" edge="1" parent="1" source="2" target="4">
                    <mxGeometry relative="1" as="geometry"/>
                </mxCell>
                <mxCell id="2" value="&lt;font color=&quot;#ff8000&quot; style=&quot;font-size: 20px;&quot;&gt;Program&lt;/font&gt;" style="text;html=1;align=center;verticalAlign=middle;resizable=0;points=[];autosize=1;strokeColor=none;fillColor=none;" vertex="1" parent="1">
                    <mxGeometry x="119" y="283" width="95" height="36" as="geometry"/>
                </mxCell>
                <mxCell id="3" value="process1" style="text;html=1;align=center;verticalAlign=middle;resizable=0;points=[];autosize=1;strokeColor=none;fillColor=none;fontSize=20;fontColor=#FF8000;" vertex="1" parent="1">
                    <mxGeometry x="295" y="218" width="99" height="36" as="geometry"/>
                </mxCell>
                <mxCell id="4" value="process2" style="text;html=1;align=center;verticalAlign=middle;resizable=0;points=[];autosize=1;strokeColor=none;fillColor=none;fontSize=20;fontColor=#FF8000;" vertex="1" parent="1">
                    <mxGeometry x="295" y="355" width="99" height="36" as="geometry"/>
                </mxCell>
            </root>
        </mxGraphModel>
    </diagram>
</mxfile>